<?xml version="1.0" encoding="UTF-8" standalone="no"?>
<!DOCTYPE svg PUBLIC "-//W3C//DTD SVG 1.1//EN" "http://www.w3.org/Graphics/SVG/1.1/DTD/svg11.dtd">
<svg xmlns="http://www.w3.org/2000/svg" version="1.1" viewBox="0.00 0.00 1021.00 251.00">
<path fill="#0059a6" d="
  M 150.38 31.73
  L 135.12 63.06
  A 0.78 0.77 12.7 0 1 134.42 63.50
  Q 100.53 63.51 72.57 63.47
  Q 67.99 63.46 66.28 64.69
  C 62.08 67.73 63.21 73.48 67.90 75.78
  A 2.45 2.39 56.7 0 0 68.99 76.02
  Q 82.30 75.88 103.75 76.12
  Q 121.60 76.31 133.13 89.67
  A 0.31 0.31 0.0 0 1 132.90 90.19
  L 38.35 90.19
  A 2.57 2.56 -13.4 0 1 36.06 88.79
  Q 28.97 74.77 32.26 61.04
  C 36.62 42.85 52.14 31.07 71.00 31.03
  Q 98.47 30.97 149.93 31.01
  A 0.50 0.50 0.0 0 1 150.38 31.73
  Z"
/>
<path fill="#0059a6" d="
  M 253.25 31.68
  L 253.25 62.90
  A 0.61 0.61 0.0 0 1 252.64 63.51
  Q 247.46 63.50 181.27 63.50
  Q 176.08 63.50 174.61 69.01
  A 2.56 2.51 -41.4 0 0 174.54 69.98
  Q 175.07 74.42 179.01 75.82
  A 2.81 2.68 53.5 0 0 179.93 75.98
  Q 196.23 76.08 203.69 75.96
  Q 218.81 75.71 224.77 77.41
  Q 242.06 82.36 250.16 99.22
  A 0.38 0.38 0.0 0 1 249.81 99.76
  L 157.52 99.76
  A 2.90 2.86 -22.2 0 1 155.48 98.92
  L 148.70 92.14
  A 0.87 0.86 -22.3 0 1 149.32 90.67
  L 243.58 90.68
  A 0.24 0.23 90.0 0 0 243.81 90.44
  L 243.81 90.43
  A 0.24 0.24 0.0 0 0 243.57 90.19
  L 149.13 90.19
  A 2.33 2.31 -13.7 0 1 147.07 88.95
  C 139.32 74.11 140.77 56.82 151.72 44.34
  Q 159.41 35.57 170.60 32.39
  Q 175.82 30.91 193.06 30.95
  Q 245.61 31.08 252.52 30.96
  A 0.72 0.71 89.2 0 1 253.25 31.68
  Z"
/>
<path fill="#0059a6" d="
  M 260.09 90.20
  A 0.11 0.11 0.0 0 0 259.98 90.31
  L 259.98 90.57
  A 0.11 0.11 0.0 0 0 260.09 90.68
  L 291.37 90.68
  A 0.63 0.63 0.0 0 1 292.00 91.31
  L 292.00 99.19
  A 0.58 0.57 -0.0 0 1 291.42 99.76
  L 260.11 99.76
  A 0.60 0.60 0.0 0 1 259.51 99.16
  L 259.51 31.36
  A 0.33 0.32 -90.0 0 1 259.83 31.03
  Q 282.33 30.91 292.64 31.11
  Q 313.90 31.53 329.95 46.54
  A 0.55 0.55 0.0 0 0 330.71 46.54
  Q 345.65 32.49 365.06 31.29
  Q 373.64 30.76 400.71 31.07
  A 0.55 0.54 -90.0 0 1 401.25 31.62
  L 401.25 89.71
  A 0.49 0.49 0.0 0 1 400.76 90.20
  L 369.26 90.20
  A 0.51 0.51 0.0 0 1 368.75 89.69
  L 368.75 64.00
  A 0.68 0.67 85.9 0 0 367.98 63.33
  Q 349.26 65.96 346.44 84.38
  A 0.46 0.29 58.3 0 0 346.44 84.51
  L 346.53 89.86
  A 0.34 0.34 0.0 0 1 346.19 90.20
  L 314.98 90.20
  A 0.61 0.60 -1.5 0 1 314.37 89.63
  Q 314.23 87.07 314.11 84.95
  C 313.46 73.31 304.19 63.93 292.47 63.50
  A 0.45 0.45 0.0 0 0 292.00 63.95
  L 292.00 89.82
  A 0.38 0.38 0.0 0 1 291.62 90.20
  L 260.09 90.20
  Z"
/>
<path fill="#000000" d="
  M 484.73 71.44
  A 0.44 0.44 0.0 0 1 484.14 71.86
  C 475.71 68.88 465.54 66.47 456.76 67.72
  C 450.24 68.65 445.31 71.75 444.97 78.49
  C 444.61 85.70 452.03 89.78 457.67 92.22
  C 472.06 98.44 487.62 104.27 490.82 118.89
  C 495.85 141.91 473.23 155.71 452.99 155.22
  Q 439.53 154.89 426.26 150.90
  A 0.75 0.75 0.0 0 1 425.72 150.18
  L 425.72 135.41
  A 0.56 0.55 7.9 0 1 426.43 134.88
  Q 440.42 138.81 454.96 138.15
  C 462.23 137.83 473.54 133.29 472.13 124.06
  C 471.28 118.46 465.17 114.88 460.25 112.99
  Q 451.43 109.59 443.60 106.18
  C 430.55 100.49 423.75 89.62 426.09 75.36
  Q 428.70 59.50 444.93 54.56
  Q 463.47 48.91 484.17 56.59
  A 0.86 0.85 10.4 0 1 484.73 57.39
  L 484.73 71.44
  Z"
/>
<path fill="#000000" d="
  M 664.79 71.45
  A 0.44 0.44 0.0 0 1 664.20 71.87
  C 655.77 68.89 645.60 66.47 636.82 67.72
  C 630.30 68.65 625.37 71.75 625.03 78.49
  C 624.66 85.70 632.08 89.78 637.72 92.22
  C 652.11 98.45 667.67 104.28 670.87 118.91
  C 675.89 141.93 653.26 155.72 633.02 155.23
  Q 619.56 154.89 606.29 150.90
  A 0.75 0.75 0.0 0 1 605.75 150.18
  L 605.76 135.41
  A 0.56 0.55 8.0 0 1 606.47 134.88
  Q 620.46 138.81 635.00 138.16
  C 642.27 137.84 653.58 133.30 652.17 124.07
  C 651.33 118.47 645.22 114.89 640.30 113.00
  Q 631.48 109.59 623.65 106.18
  C 610.60 100.49 603.80 89.61 606.15 75.35
  Q 608.76 59.49 624.99 54.56
  Q 643.54 48.91 664.24 56.60
  A 0.86 0.85 10.4 0 1 664.80 57.40
  L 664.79 71.45
  Z"
/>
<path fill="#000000" d="
  M 548.19 140.25
  C 565.01 140.22 567.35 127.02 567.34 113.61
  Q 567.33 95.88 567.24 54.28
  A 0.36 0.35 -90.0 0 1 567.59 53.92
  L 586.05 53.92
  A 0.46 0.46 0.0 0 1 586.51 54.38
  Q 586.55 106.52 586.65 111.93
  Q 586.85 123.58 585.21 129.42
  C 580.55 146.05 565.73 155.23 548.22 155.26
  C 530.70 155.29 515.84 146.17 511.12 129.56
  Q 509.47 123.72 509.62 112.07
  Q 509.70 106.66 509.55 54.52
  A 0.46 0.46 0.0 0 1 510.01 54.06
  L 528.47 53.99
  A 0.36 0.35 89.8 0 1 528.82 54.35
  Q 528.88 95.95 528.94 113.68
  C 528.98 127.09 531.37 140.28 548.19 140.25
  Z"
/>
<path fill="#000000" d="
  M 727.97 155.27
  C 710.46 155.26 695.63 146.10 690.95 129.48
  Q 689.30 123.65 689.49 112.00
  Q 689.58 106.59 689.54 54.45
  A 0.46 0.46 0.0 0 1 690.00 53.99
  L 708.46 53.97
  A 0.36 0.35 89.9 0 1 708.81 54.33
  Q 708.78 95.92 708.79 113.65
  C 708.80 127.06 711.16 140.25 727.98 140.26
  C 744.80 140.27 747.17 127.08 747.19 113.66
  Q 747.22 95.94 747.23 54.34
  A 0.36 0.35 -89.9 0 1 747.58 53.99
  L 766.04 54.03
  A 0.46 0.46 0.0 0 1 766.50 54.49
  Q 766.42 106.62 766.50 112.03
  Q 766.68 123.68 765.03 129.52
  C 760.33 146.13 745.49 155.28 727.97 155.27
  Z"
/>
<path fill="#000000" d="
  M 839.70 128.18
  Q 839.86 128.18 839.89 128.07
  Q 851.81 85.83 860.60 54.42
  A 0.61 0.60 -81.6 0 1 861.18 53.98
  L 889.12 53.98
  A 0.45 0.45 0.0 0 1 889.57 54.43
  L 889.57 153.14
  A 0.34 0.34 0.0 0 1 889.23 153.48
  L 872.63 153.48
  A 0.43 0.43 0.0 0 1 872.20 153.05
  L 872.20 72.75
  A 0.17 0.17 0.0 0 0 871.87 72.70
  L 848.52 152.92
  A 0.84 0.83 -81.0 0 1 847.70 153.53
  Q 846.45 153.50 839.71 153.50
  Q 832.98 153.51 831.73 153.54
  A 0.84 0.83 81.0 0 1 830.91 152.93
  L 807.48 72.73
  A 0.17 0.17 0.0 0 0 807.15 72.78
  L 807.23 153.08
  A 0.43 0.43 0.0 0 1 806.80 153.51
  L 790.20 153.53
  A 0.34 0.34 0.0 0 1 789.86 153.19
  L 789.76 54.48
  A 0.45 0.45 0.0 0 1 790.21 54.03
  L 818.15 54.00
  A 0.61 0.60 81.5 0 1 818.73 54.44
  Q 827.55 85.84 839.52 128.07
  Q 839.55 128.18 839.70 128.18
  Z"
/>
<path fill="#000000" d="
  M 951.45 155.23
  C 933.95 155.24 919.12 146.10 914.43 129.49
  Q 912.78 123.66 912.96 112.01
  Q 913.05 106.61 912.98 54.51
  A 0.46 0.46 0.0 0 1 913.44 54.05
  L 931.89 54.01
  A 0.36 0.35 89.9 0 1 932.24 54.37
  Q 932.23 95.94 932.26 113.65
  C 932.27 127.05 934.64 140.24 951.45 140.24
  C 968.26 140.23 970.62 127.05 970.63 113.64
  Q 970.65 95.93 970.63 54.36
  A 0.36 0.35 -89.9 0 1 970.98 54.00
  L 989.43 54.03
  A 0.46 0.46 0.0 0 1 989.89 54.49
  Q 989.84 106.59 989.93 112.00
  Q 990.11 123.64 988.47 129.47
  C 983.78 146.08 968.96 155.23 951.45 155.23
  Z"
/>
<path fill="#0059a6" d="
  M 134.65 91.08
  L 138.97 98.56
  A 0.80 0.80 0.0 0 1 138.27 99.76
  L 45.69 99.76
  A 0.80 0.80 0.0 0 1 45.13 99.53
  L 37.64 92.05
  A 0.80 0.80 0.0 0 1 38.20 90.68
  L 133.96 90.68
  A 0.80 0.80 0.0 0 1 134.65 91.08
  Z"
/>
<rect fill="#0059a6" x="314.24" y="90.68" width="32.26" height="9.08" rx="0.54"/>
<rect fill="#0059a6" x="368.75" y="90.68" width="32.50" height="9.08" rx="0.53"/>
<path fill="#0059a6" d="
  M 47.69 101.54
  A 0.30 0.30 0.0 0 1 47.86 101.00
  L 139.91 101.00
  A 0.23 0.22 -6.4 0 1 140.13 101.17
  L 141.98 108.31
  A 0.15 0.15 0.0 0 1 141.84 108.50
  Q 79.28 108.48 75.25 108.53
  C 63.98 108.69 56.13 107.37 47.69 101.54
  Z"
/>
<path fill="#0059a6" d="
  M 158.61 101.54
  A 0.30 0.30 0.0 0 1 158.78 101.00
  L 250.78 101.00
  A 0.23 0.22 -6.4 0 1 251.00 101.17
  L 252.85 108.31
  A 0.15 0.15 0.0 0 1 252.71 108.50
  Q 190.18 108.48 186.16 108.53
  C 174.89 108.69 167.05 107.37 158.61 101.54
  Z"
/>
<rect fill="#0059a6" x="259.50" y="101.00" width="32.50" height="7.50" rx="0.38"/>
<rect fill="#0059a6" x="314.23" y="101.00" width="32.26" height="7.50" rx="0.39"/>
<rect fill="#0059a6" x="368.76" y="100.99" width="32.50" height="7.50" rx="0.32"/>
<path fill="#0059a6" d="
  M 109.33 110.76
  L 141.86 110.76
  A 0.53 0.52 90.0 0 1 142.38 111.29
  L 142.38 116.79
  A 0.47 0.46 90.0 0 1 141.92 117.26
  L 110.14 117.26
  A 0.46 0.46 0.0 0 1 109.71 116.65
  Q 110.64 113.90 108.97 111.45
  A 0.44 0.44 0.0 0 1 109.33 110.76
  Z"
/>
<path fill="#0059a6" d="
  M 219.84 111.44
  A 0.44 0.44 0.0 0 1 220.20 110.75
  L 252.76 110.76
  A 0.53 0.52 -90.0 0 1 253.28 111.29
  L 253.28 116.79
  A 0.47 0.46 -90.0 0 1 252.82 117.26
  L 221.02 117.26
  A 0.46 0.46 0.0 0 1 220.58 116.65
  Q 221.52 113.90 219.84 111.44
  Z"
/>
<rect fill="#0059a6" x="259.50" y="110.76" width="32.50" height="6.50" rx="0.37"/>
<rect fill="#0059a6" x="314.25" y="110.76" width="32.24" height="6.50" rx="0.38"/>
<rect fill="#0059a6" x="368.75" y="110.76" width="32.50" height="6.50" rx="0.36"/>
<path fill="#0059a6" d="
  M 31.25 126.61
  L 31.25 121.39
  A 0.39 0.39 0.0 0 1 31.64 121.00
  L 141.66 121.00
  A 0.39 0.39 0.0 0 1 142.03 121.50
  L 140.51 126.72
  A 0.39 0.39 0.0 0 1 140.14 127.00
  L 31.64 127.00
  A 0.39 0.39 0.0 0 1 31.25 126.61
  Z"
/>
<path fill="#0059a6" d="
  M 252.77 121.40
  L 251.64 126.74
  A 0.33 0.33 0.0 0 1 251.31 127.00
  L 147.70 127.00
  A 0.33 0.33 0.0 0 1 147.40 126.53
  L 150.00 121.19
  A 0.33 0.33 0.0 0 1 150.30 121.00
  L 252.44 121.00
  A 0.33 0.33 0.0 0 1 252.77 121.40
  Z"
/>
<rect fill="#0059a6" x="259.50" y="121.00" width="32.52" height="6.00" rx="0.36"/>
<rect fill="#0059a6" x="314.24" y="121.00" width="32.26" height="6.00" rx="0.40"/>
<rect fill="#0059a6" x="368.74" y="121.00" width="32.52" height="6.00" rx="0.36"/>
<path fill="#0059a6" d="
  M 31.24 135.34
  L 31.24 131.91
  A 0.41 0.41 0.0 0 1 31.65 131.50
  L 138.09 131.50
  A 0.41 0.41 0.0 0 1 138.44 132.12
  L 136.46 135.55
  A 0.41 0.41 0.0 0 1 136.10 135.75
  L 31.65 135.75
  A 0.41 0.41 0.0 0 1 31.24 135.34
  Z"
/>
<path fill="#0059a6" d="
  M 143.17 135.25
  L 144.89 131.70
  A 0.35 0.35 0.0 0 1 145.21 131.50
  L 248.97 131.50
  A 0.35 0.35 0.0 0 1 249.28 132.00
  L 247.56 135.55
  A 0.35 0.35 0.0 0 1 247.24 135.75
  L 143.48 135.75
  A 0.35 0.35 0.0 0 1 143.17 135.25
  Z"
/>
<rect fill="#0059a6" x="259.50" y="131.50" width="32.50" height="4.26" rx="0.36"/>
<rect fill="#0059a6" x="314.25" y="131.51" width="32.24" height="4.24" rx="0.37"/>
<rect fill="#0059a6" x="368.75" y="131.50" width="32.50" height="4.26" rx="0.34"/>
<path fill="#0059a6" d="
  M 31.26 144.41
  L 31.26 141.60
  A 0.35 0.35 0.0 0 1 31.61 141.25
  L 131.19 141.25
  A 0.35 0.35 0.0 0 1 131.43 141.85
  L 128.62 144.66
  A 0.35 0.35 0.0 0 1 128.38 144.76
  L 31.61 144.76
  A 0.35 0.35 0.0 0 1 31.26 144.41
  Z"
/>
<path fill="#0059a6" d="
  M 242.33 141.80
  L 239.46 144.67
  A 0.32 0.32 0.0 0 1 239.24 144.76
  L 139.06 144.76
  A 0.32 0.32 0.0 0 1 138.77 144.30
  L 140.17 141.43
  A 0.32 0.32 0.0 0 1 140.46 141.25
  L 242.11 141.25
  A 0.32 0.32 0.0 0 1 242.33 141.80
  Z"
/>
<rect fill="#0059a6" x="259.49" y="141.25" width="32.50" height="3.50" rx="0.40"/>
<rect fill="#0059a6" x="314.25" y="141.25" width="32.24" height="3.50" rx="0.39"/>
<rect fill="#0059a6" x="368.75" y="141.25" width="32.50" height="3.50" rx="0.37"/>
<path fill="#0059a6" d="
  M 114.39 151.76
  A 0.16 0.16 0.0 0 1 114.42 152.07
  Q 111.18 152.83 109.16 153.14
  Q 107.02 153.46 104.00 153.45
  Q 82.66 153.45 31.78 153.48
  A 0.50 0.50 0.0 0 1 31.27 152.98
  L 31.27 152.56
  A 0.74 0.74 0.0 0 1 32.02 151.81
  L 114.39 151.76
  Z"
/>
<path fill="#0059a6" d="
  M 225.25 151.72
  A 0.17 0.17 0.0 0 1 225.29 152.06
  Q 221.75 152.89 219.55 153.22
  Q 217.22 153.57 213.93 153.56
  Q 190.66 153.54 135.19 153.54
  A 0.55 0.55 0.0 0 1 134.64 152.99
  L 134.64 152.53
  A 0.81 0.81 0.0 0 1 135.45 151.72
  L 225.25 151.72
  Z"
/>
<rect fill="#0059a6" x="259.51" y="151.76" width="32.46" height="1.74" rx="0.40"/>
<rect fill="#0059a6" x="314.26" y="151.76" width="32.26" height="1.74" rx="0.44"/>
<rect fill="#0059a6" x="368.76" y="151.76" width="32.50" height="1.74" rx="0.39"/>
<path fill="#000000" d="
  M 313.57 211.84
  C 312.96 214.95 315.04 217.22 318.14 217.74
  C 322.93 218.55 330.14 217.77 330.74 211.77
  C 330.93 209.82 328.98 208.80 327.43 208.30
  C 323.96 207.19 317.84 206.34 313.42 204.29
  C 305.75 200.73 308.80 190.54 313.24 186.05
  Q 317.14 182.11 322.39 181.04
  C 331.78 179.13 343.52 181.41 342.15 193.65
  A 0.98 0.98 0.0 0 1 341.18 194.52
  L 333.97 194.52
  A 0.77 0.77 0.0 0 1 333.21 193.66
  C 334.13 185.96 318.79 186.22 317.72 193.71
  Q 317.44 195.70 319.35 196.66
  Q 321.18 197.59 331.45 200.04
  C 335.14 200.92 338.90 202.79 339.79 206.72
  Q 340.62 210.33 339.05 214.14
  C 334.71 224.65 322.24 227.40 312.29 224.48
  Q 303.44 221.88 304.54 211.90
  A 1.02 1.02 0.0 0 1 305.55 210.99
  L 312.88 210.99
  A 0.71 0.70 -84.3 0 1 313.57 211.84
  Z"
/>
<path fill="#000000" d="
  M 108.63 181.49
  L 116.55 181.49
  A 0.35 0.35 0.0 0 1 116.89 181.91
  L 115.40 188.97
  A 0.35 0.35 0.0 0 1 115.06 189.25
  L 107.13 189.25
  A 0.35 0.35 0.0 0 1 106.79 188.83
  L 108.29 181.77
  A 0.35 0.35 0.0 0 1 108.63 181.49
  Z"
/>
<path fill="#000000" d="
  M 211.91 181.50
  L 219.67 181.50
  A 0.42 0.42 0.0 0 1 220.08 182.01
  L 218.62 188.92
  A 0.42 0.42 0.0 0 1 218.21 189.25
  L 210.44 189.25
  A 0.42 0.42 0.0 0 1 210.03 188.74
  L 211.50 181.83
  A 0.42 0.42 0.0 0 1 211.91 181.50
  Z"
/>
<path fill="#000000" d="
  M 454.63 181.50
  L 462.24 181.50
  A 0.49 0.49 0.0 0 1 462.72 182.09
  L 461.28 188.87
  A 0.49 0.49 0.0 0 1 460.80 189.26
  L 453.19 189.26
  A 0.49 0.49 0.0 0 1 452.71 188.67
  L 454.15 181.89
  A 0.49 0.49 0.0 0 1 454.63 181.50
  Z"
/>
<path fill="#000000" d="
  M 520.11 181.50
  L 528.02 181.50
  A 0.35 0.35 0.0 0 1 528.36 181.92
  L 526.86 188.97
  A 0.35 0.35 0.0 0 1 526.52 189.25
  L 518.61 189.25
  A 0.35 0.35 0.0 0 1 518.27 188.83
  L 519.77 181.78
  A 0.35 0.35 0.0 0 1 520.11 181.50
  Z"
/>
<path fill="#000000" d="
  M 65.96 189.50
  L 53.89 189.50
  A 0.39 0.39 0.0 0 0 53.50 189.81
  L 46.20 224.20
  A 0.39 0.39 0.0 0 1 45.81 224.51
  L 37.38 224.51
  A 0.39 0.39 0.0 0 1 37.00 224.04
  L 44.24 189.97
  A 0.39 0.39 0.0 0 0 43.86 189.50
  L 32.04 189.50
  A 0.39 0.39 0.0 0 1 31.66 189.03
  L 33.14 182.06
  A 0.39 0.39 0.0 0 1 33.53 181.75
  L 67.44 181.75
  A 0.39 0.39 0.0 0 1 67.82 182.22
  L 66.35 189.19
  A 0.39 0.39 0.0 0 1 65.96 189.50
  Z"
/>
<path fill="#000000" d="
  M 77.76 195.50
  A 0.21 0.21 0.0 0 0 78.11 195.70
  Q 82.65 191.56 88.63 191.99
  C 94.47 192.41 97.65 196.16 96.46 202.00
  Q 94.19 213.18 91.90 223.80
  A 0.90 0.89 -83.5 0 1 91.03 224.50
  L 83.75 224.50
  A 0.58 0.57 -83.9 0 1 83.19 223.80
  L 87.56 203.23
  A 1.85 1.74 46.8 0 0 87.56 202.48
  Q 86.58 197.98 81.82 199.23
  Q 77.09 200.47 75.64 205.96
  Q 74.64 209.76 71.69 224.24
  A 0.34 0.34 0.0 0 1 71.36 224.50
  L 63.37 224.50
  A 0.20 0.20 0.0 0 1 63.17 224.26
  L 72.15 182.00
  A 0.31 0.30 5.8 0 1 72.45 181.76
  L 80.27 181.76
  A 0.33 0.32 5.8 0 1 80.59 182.15
  L 77.76 195.50
  Z"
/>
<path fill="#000000" d="
  M 176.34 181.75
  L 205.93 181.75
  A 0.39 0.39 0.0 0 1 206.31 182.22
  L 204.84 189.19
  A 0.39 0.39 0.0 0 1 204.45 189.50
  L 183.79 189.50
  A 0.39 0.39 0.0 0 0 183.40 189.81
  L 181.55 198.53
  A 0.39 0.39 0.0 0 0 181.93 199.00
  L 199.62 199.00
  A 0.39 0.39 0.0 0 1 200.00 199.47
  L 198.58 206.19
  A 0.39 0.39 0.0 0 1 198.19 206.50
  L 180.20 206.50
  A 0.39 0.39 0.0 0 0 179.81 206.81
  L 176.12 224.21
  A 0.39 0.39 0.0 0 1 175.73 224.52
  L 167.41 224.52
  A 0.39 0.39 0.0 0 1 167.03 224.05
  L 175.95 182.06
  A 0.39 0.39 0.0 0 1 176.34 181.75
  Z"
/>
<path fill="#000000" d="
  M 228.30 181.74
  L 235.97 181.74
  A 0.41 0.41 0.0 0 1 236.37 182.24
  L 227.47 224.18
  A 0.41 0.41 0.0 0 1 227.07 224.50
  L 219.40 224.50
  A 0.41 0.41 0.0 0 1 219.00 224.00
  L 227.90 182.06
  A 0.41 0.41 0.0 0 1 228.30 181.74
  Z"
/>
<path fill="#000000" d="
  M 503.80 181.74
  L 511.41 181.74
  A 0.44 0.44 0.0 0 1 511.84 182.27
  L 502.94 224.14
  A 0.44 0.44 0.0 0 1 502.51 224.49
  L 494.90 224.49
  A 0.44 0.44 0.0 0 1 494.47 223.96
  L 503.37 182.09
  A 0.44 0.44 0.0 0 1 503.80 181.74
  Z"
/>
<path fill="#000000" d="
  M 696.59 182.00
  A 0.33 0.32 -83.1 0 1 696.90 181.75
  L 705.02 181.75
  A 0.21 0.20 -84.2 0 1 705.22 182.00
  L 696.37 223.66
  A 1.10 1.08 5.8 0 1 695.30 224.52
  L 688.70 224.52
  A 0.62 0.62 0.0 0 1 688.09 223.77
  L 688.54 221.65
  A 0.32 0.31 -13.4 0 0 688.03 221.34
  Q 687.60 221.70 686.63 222.51
  C 683.60 225.05 679.86 225.81 675.93 225.14
  C 670.66 224.25 667.86 218.83 668.02 213.77
  C 668.32 203.79 674.04 192.95 684.95 192.00
  Q 690.43 191.52 693.28 195.67
  A 0.24 0.24 0.0 0 0 693.71 195.59
  L 696.59 182.00
  Z
  M 680.3106 218.0290
  A 9.99 6.69 113.1 0 0 690.3836 211.4647
  A 9.99 6.69 113.1 0 0 688.1494 199.6510
  A 9.99 6.69 113.1 0 0 678.0764 206.2153
  A 9.99 6.69 113.1 0 0 680.3106 218.0290
  Z"
/>
<path fill="#000000" d="
  M 728.07 181.75
  L 736.53 181.75
  A 0.32 0.32 0.0 0 1 736.85 182.14
  L 727.90 224.25
  A 0.32 0.32 0.0 0 1 727.59 224.50
  L 719.13 224.50
  A 0.32 0.32 0.0 0 1 718.81 224.11
  L 727.76 182.00
  A 0.32 0.32 0.0 0 1 728.07 181.75
  Z"
/>
<path fill="#000000" d="
  M 565.50 199.17
  L 562.80 199.36
  A 0.71 0.70 4.3 0 1 562.06 198.51
  L 563.04 193.86
  A 1.11 1.11 0.0 0 1 564.12 192.99
  L 567.01 192.99
  A 0.77 0.76 6.1 0 0 567.76 192.39
  L 568.54 188.67
  A 2.22 2.21 86.1 0 1 569.93 187.07
  L 577.07 184.45
  A 0.51 0.51 0.0 0 1 577.74 185.03
  L 576.16 192.44
  A 0.57 0.56 -86.1 0 0 576.75 193.12
  L 580.20 192.88
  A 0.75 0.74 4.0 0 1 580.99 193.78
  L 580.02 198.32
  A 1.20 1.20 0.0 0 1 578.85 199.27
  L 575.35 199.27
  A 0.80 0.79 5.8 0 0 574.57 199.90
  L 570.93 217.06
  A 1.05 1.05 0.0 0 0 572.03 218.33
  L 574.91 218.13
  A 0.69 0.69 0.0 0 1 575.64 218.96
  L 574.62 223.75
  A 1.27 1.25 -84.4 0 1 573.42 224.75
  C 568.52 224.86 560.78 225.70 562.16 218.88
  Q 564.30 208.28 566.17 199.95
  A 0.64 0.64 0.0 0 0 565.50 199.17
  Z"
/>
<path fill="#000000" d="
  M 915.28 199.95
  A 0.64 0.64 0.0 0 0 914.61 199.17
  L 911.91 199.36
  A 0.71 0.70 4.3 0 1 911.17 198.51
  L 912.15 193.86
  A 1.11 1.11 0.0 0 1 913.23 192.99
  L 916.12 192.99
  A 0.77 0.76 6.0 0 0 916.87 192.38
  L 917.65 188.66
  A 2.22 2.21 86.0 0 1 919.04 187.06
  L 926.18 184.44
  A 0.51 0.51 0.0 0 1 926.85 185.02
  L 925.27 192.43
  A 0.57 0.56 -86.1 0 0 925.86 193.11
  L 929.32 192.87
  A 0.75 0.75 0.0 0 1 930.11 193.77
  L 929.14 198.31
  A 1.20 1.20 0.0 0 1 927.97 199.26
  L 924.47 199.26
  A 0.80 0.79 5.7 0 0 923.69 199.89
  L 920.05 217.06
  A 1.05 1.05 0.0 0 0 921.15 218.33
  L 924.03 218.13
  A 0.69 0.69 0.0 0 1 924.76 218.96
  L 923.75 223.75
  A 1.27 1.25 -84.5 0 1 922.55 224.75
  C 917.64 224.87 909.90 225.71 911.28 218.89
  Q 913.42 208.28 915.28 199.95
  Z"
/>
<path fill="#000000" d="
  M 535.77 214.28
  Q 535.28 218.64 540.25 218.79
  C 542.64 218.86 546.38 218.81 547.19 216.10
  A 1.95 1.82 18.2 0 0 545.94 213.83
  Q 543.00 212.79 536.29 211.03
  Q 533.86 210.39 531.38 208.06
  A 1.84 1.79 15.0 0 1 530.87 207.20
  C 528.93 199.83 534.80 193.91 541.58 192.32
  Q 546.48 191.17 551.75 192.55
  Q 558.22 194.25 557.98 200.97
  A 1.62 1.62 0.0 0 1 556.36 202.53
  L 550.09 202.53
  A 1.03 1.02 -82.6 0 1 549.10 201.24
  Q 549.62 199.28 546.69 198.69
  C 544.18 198.19 540.58 198.28 539.53 200.90
  A 1.77 1.66 -71.5 0 0 540.60 203.23
  C 548.11 205.21 559.01 206.14 555.57 216.53
  C 554.08 221.03 549.50 224.25 544.54 225.04
  C 536.31 226.35 525.61 225.48 527.12 214.31
  A 0.36 0.35 -85.2 0 1 527.47 214.01
  L 535.53 214.01
  A 0.24 0.24 0.0 0 1 535.77 214.28
  Z"
/>
<path fill="#000000" d="
  M 837.66 194.41
  C 841.27 197.66 842.01 203.87 841.22 208.41
  Q 840.19 214.34 836.17 218.80
  Q 832.15 223.26 826.37 224.91
  C 821.94 226.17 815.68 226.09 812.07 222.84
  C 808.46 219.59 807.72 213.38 808.51 208.83
  Q 809.54 202.91 813.56 198.45
  Q 817.57 193.99 823.36 192.34
  C 827.79 191.07 834.05 191.16 837.66 194.41
  Z
  M 820.5155 218.0754
  A 10.38 7.16 114.5 0 0 831.3353 211.5992
  A 10.38 7.16 114.5 0 0 829.1245 199.1846
  A 10.38 7.16 114.5 0 0 818.3047 205.6608
  A 10.38 7.16 114.5 0 0 820.5155 218.0754
  Z"
/>
<path fill="#000000" d="
  M 957.56 218.68
  Q 953.59 223.18 947.83 224.88
  C 943.41 226.18 937.15 226.16 933.52 222.94
  C 929.88 219.72 929.08 213.52 929.83 208.98
  Q 930.81 203.05 934.78 198.55
  Q 938.76 194.05 944.52 192.35
  C 948.94 191.05 955.19 191.08 958.83 194.29
  C 962.47 197.51 963.27 203.71 962.52 208.26
  Q 961.54 214.19 957.56 218.68
  Z
  M 941.7777 218.0809
  A 10.40 7.16 114.8 0 0 952.6397 211.6433
  A 10.40 7.16 114.8 0 0 950.5023 199.1991
  A 10.40 7.16 114.8 0 0 939.6403 205.6367
  A 10.40 7.16 114.8 0 0 941.7777 218.0809
  Z"
/>
<path fill="#000000" d="
  M 130.30 196.11
  Q 135.76 190.82 142.75 192.24
  C 148.34 193.39 150.00 197.06 148.90 202.49
  Q 147.14 211.26 144.36 223.91
  A 0.76 0.75 6.2 0 1 143.62 224.50
  L 136.14 224.50
  A 0.50 0.50 0.0 0 1 135.65 223.89
  Q 137.29 216.61 139.93 203.54
  C 140.72 199.64 136.97 198.47 133.72 199.41
  Q 129.52 200.61 128.09 205.86
  Q 127.33 208.63 124.15 224.02
  A 0.57 0.57 0.0 0 1 123.59 224.48
  L 116.01 224.48
  A 0.36 0.36 0.0 0 1 115.66 224.05
  L 122.12 193.64
  A 1.14 1.14 0.0 0 1 123.24 192.73
  L 129.77 192.73
  A 0.62 0.61 -84.2 0 1 130.37 193.47
  L 129.86 195.86
  A 0.27 0.26 74.1 0 0 130.30 196.11
  Z"
/>
<path fill="#000000" d="
  M 235.23 224.51
  A 0.22 0.22 0.0 0 1 235.01 224.25
  L 241.53 193.56
  A 1.04 1.03 -83.7 0 1 242.54 192.74
  L 249.23 192.74
  A 0.60 0.60 0.0 0 1 249.82 193.47
  L 249.34 195.74
  A 0.32 0.32 0.0 0 0 249.88 196.03
  C 252.93 192.90 256.37 191.60 260.77 192.11
  Q 264.98 192.60 266.28 196.41
  A 0.47 0.47 0.0 0 0 267.08 196.56
  C 272.86 189.67 287.49 189.99 284.99 202.28
  Q 283.11 211.49 280.38 223.95
  A 0.71 0.70 6.1 0 1 279.69 224.50
  L 272.13 224.50
  A 0.48 0.48 0.0 0 1 271.66 223.92
  L 276.04 203.31
  A 3.28 3.28 0.0 0 0 272.32 199.39
  L 271.37 199.55
  A 6.38 6.38 0.0 0 0 266.13 204.53
  L 262.00 223.97
  A 0.67 0.67 0.0 0 1 261.34 224.51
  L 253.93 224.51
  A 0.51 0.51 0.0 0 1 253.43 223.89
  L 257.72 203.65
  A 3.63 3.63 0.0 0 0 253.94 199.27
  L 253.56 199.29
  A 6.18 6.17 4.1 0 0 247.91 204.17
  L 243.66 224.16
  A 0.44 0.44 0.0 0 1 243.23 224.51
  L 235.23 224.51
  Z"
/>
<path fill="#000000" d="
  M 356.90 196.15
  Q 362.22 190.90 368.80 192.29
  C 380.50 194.76 376.90 209.74 373.09 216.63
  C 369.61 222.93 362.48 226.81 355.36 224.68
  Q 352.67 223.87 351.76 221.47
  A 0.34 0.33 -49.3 0 0 351.12 221.52
  L 347.95 236.46
  A 0.38 0.37 5.6 0 1 347.58 236.76
  L 339.71 236.76
  A 0.21 0.20 -84.0 0 1 339.52 236.51
  L 348.60 193.76
  A 1.30 1.30 0.0 0 1 349.87 192.73
  L 356.14 192.73
  A 0.70 0.69 6.0 0 1 356.82 193.57
  L 356.34 195.84
  A 0.34 0.33 73.8 0 0 356.90 196.15
  Z
  M 356.3526 217.9513
  A 9.98 6.69 113.8 0 0 366.5011 211.5197
  A 9.98 6.69 113.8 0 0 364.4074 199.6887
  A 9.98 6.69 113.8 0 0 354.2589 206.1203
  A 9.98 6.69 113.8 0 0 356.3526 217.9513
  Z"
/>
<path fill="#000000" d="
  M 399.68 215.02
  L 408.26 215.02
  A 0.12 0.12 0.0 0 1 408.37 215.20
  Q 402.76 225.40 391.75 225.47
  C 384.76 225.52 379.23 221.55 379.23 213.97
  Q 379.24 207.66 382.46 201.70
  Q 388.17 191.13 400.53 192.05
  C 410.66 192.81 411.71 202.32 409.63 210.25
  A 1.00 0.99 7.0 0 1 408.66 211.00
  L 388.55 211.00
  A 0.69 0.69 0.0 0 0 387.87 211.58
  C 386.62 219.51 395.36 220.53 399.29 215.22
  A 0.50 0.48 -70.7 0 1 399.68 215.02
  Z
  M 390.99 205.27
  L 401.44 205.27
  A 0.55 0.55 0.0 0 0 401.99 204.75
  Q 402.27 199.51 397.53 198.98
  A 6.32 6.31 -64.2 0 0 392.37 200.78
  L 390.07 203.06
  A 1.30 1.29 22.5 0 0 390.99 205.27
  Z"
/>
<path fill="#000000" d="
  M 442.02 212.76
  A 0.17 0.17 0.0 0 1 442.17 213.00
  Q 437.54 223.94 427.82 225.30
  Q 421.28 226.21 417.23 223.59
  C 411.24 219.72 412.74 209.10 415.45 203.39
  Q 422.08 189.45 437.13 192.59
  Q 445.44 194.33 443.76 204.05
  A 0.24 0.23 4.1 0 1 443.52 204.25
  L 435.46 204.25
  A 0.26 0.26 0.0 0 1 435.20 203.98
  C 435.51 197.19 427.67 198.52 425.31 202.25
  C 422.98 205.91 418.81 217.30 426.03 218.26
  Q 431.16 218.95 433.25 213.03
  A 0.41 0.40 -79.5 0 1 433.63 212.76
  L 442.02 212.76
  Z"
/>
<path fill="#000000" d="
  M 479.03 221.56
  Q 473.44 226.04 467.33 225.26
  C 462.76 224.68 460.24 221.71 460.88 216.96
  C 462.23 207.02 470.42 205.81 478.65 204.93
  C 481.14 204.66 484.37 203.51 483.37 200.37
  A 1.31 1.28 -88.7 0 0 482.59 199.54
  Q 475.95 197.03 473.15 202.69
  A 1.01 1.00 -76.6 0 1 472.25 203.25
  L 465.14 203.25
  A 0.21 0.20 6.7 0 1 464.94 203.00
  C 467.38 192.19 479.30 190.02 488.21 193.33
  C 492.91 195.08 492.63 198.86 491.67 203.48
  Q 489.76 212.58 488.20 219.75
  Q 487.78 221.65 488.98 222.98
  A 0.93 0.92 -21.0 0 1 488.29 224.52
  L 480.40 224.52
  A 0.67 0.66 90.0 0 1 479.74 223.85
  L 479.74 221.91
  A 0.44 0.44 0.0 0 0 479.03 221.56
  Z
  M 481.41 209.59
  Q 478.76 210.46 474.80 211.12
  Q 470.63 211.83 469.71 215.35
  C 469.17 217.43 470.35 219.25 472.49 219.15
  Q 480.94 218.74 481.70 209.82
  A 0.22 0.22 0.0 0 0 481.41 209.59
  Z"
/>
<path fill="#000000" d="
  M 616.83 221.89
  A 0.44 0.44 0.0 0 0 616.12 221.54
  Q 610.54 226.02 604.43 225.24
  C 599.86 224.67 597.34 221.70 597.98 216.95
  C 599.32 207.02 607.51 205.81 615.73 204.92
  C 618.22 204.65 621.45 203.50 620.45 200.36
  A 1.30 1.28 -88.8 0 0 619.67 199.53
  Q 613.03 197.03 610.23 202.69
  A 1.01 1.00 -76.6 0 1 609.34 203.25
  L 602.23 203.25
  A 0.20 0.20 0.0 0 1 602.03 203.00
  C 604.46 192.20 616.37 190.02 625.28 193.32
  C 629.98 195.07 629.70 198.85 628.74 203.46
  Q 626.84 212.56 625.28 219.73
  Q 624.87 221.62 626.07 222.95
  A 0.93 0.92 -21.0 0 1 625.38 224.49
  L 617.49 224.50
  A 0.67 0.66 90.0 0 1 616.83 223.83
  L 616.83 221.89
  Z
  M 618.50 209.57
  Q 615.86 210.45 611.90 211.13
  Q 607.74 211.85 606.83 215.37
  C 606.30 217.45 607.49 219.27 609.63 219.16
  Q 618.07 218.72 618.79 209.80
  A 0.22 0.22 0.0 0 0 618.50 209.57
  Z"
/>
<path fill="#000000" d="
  M 645.64 195.86
  A 0.27 0.26 74.0 0 0 646.08 196.11
  Q 651.53 190.82 658.52 192.24
  C 664.11 193.38 665.78 197.05 664.68 202.48
  Q 662.92 211.25 660.15 223.90
  A 0.76 0.75 6.1 0 1 659.41 224.49
  L 651.93 224.50
  A 0.50 0.50 0.0 0 1 651.44 223.89
  Q 653.08 216.61 655.71 203.54
  C 656.50 199.64 652.75 198.47 649.50 199.41
  Q 645.30 200.61 643.87 205.86
  Q 643.11 208.63 639.94 224.03
  A 0.57 0.57 0.0 0 1 639.38 224.49
  L 631.80 224.49
  A 0.36 0.36 0.0 0 1 631.45 224.06
  L 637.90 193.65
  A 1.14 1.14 0.0 0 1 639.01 192.74
  L 645.54 192.73
  A 0.62 0.61 -84.3 0 1 646.14 193.47
  L 645.64 195.86
  Z"
/>
<path fill="#000000" d="
  M 749.48 195.87
  A 0.27 0.26 74.0 0 0 749.92 196.11
  Q 755.37 190.81 762.37 192.23
  C 767.96 193.37 769.63 197.04 768.54 202.47
  Q 766.79 211.25 764.02 223.91
  A 0.76 0.75 6.1 0 1 763.28 224.50
  L 755.80 224.51
  A 0.50 0.50 0.0 0 1 755.31 223.90
  Q 756.94 216.62 759.56 203.54
  C 760.35 199.63 756.59 198.47 753.34 199.41
  Q 749.14 200.62 747.72 205.87
  Q 746.96 208.65 743.80 224.05
  A 0.57 0.57 0.0 0 1 743.24 224.51
  L 735.66 224.52
  A 0.36 0.36 0.0 0 1 735.31 224.09
  L 741.73 193.65
  A 1.14 1.14 0.0 0 1 742.85 192.74
  L 749.38 192.73
  A 0.62 0.61 -84.3 0 1 749.98 193.47
  L 749.48 195.87
  Z"
/>
<path fill="#000000" d="
  M 785.53 195.88
  A 0.27 0.26 74.0 0 0 785.97 196.13
  Q 791.42 190.83 798.42 192.24
  C 804.01 193.38 805.68 197.05 804.58 202.49
  Q 802.83 211.27 800.07 223.93
  A 0.76 0.75 6.1 0 1 799.33 224.52
  L 791.84 224.53
  A 0.50 0.50 0.0 0 1 791.35 223.92
  Q 792.98 216.63 795.61 203.55
  C 796.40 199.65 792.64 198.48 789.39 199.42
  Q 785.19 200.63 783.77 205.88
  Q 783.01 208.66 779.84 224.06
  A 0.57 0.57 0.0 0 1 779.28 224.52
  L 771.70 224.53
  A 0.36 0.36 0.0 0 1 771.35 224.10
  L 777.78 193.66
  A 1.14 1.14 0.0 0 1 778.90 192.75
  L 785.43 192.75
  A 0.62 0.61 -84.3 0 1 786.03 193.48
  L 785.53 195.88
  Z"
/>
<path fill="#000000" d="
  M 894.46 221.90
  A 0.44 0.44 0.0 0 0 893.75 221.55
  Q 888.17 226.04 882.06 225.26
  C 877.50 224.69 874.97 221.72 875.61 216.98
  C 876.94 207.04 885.13 205.82 893.35 204.93
  C 895.84 204.66 899.07 203.50 898.07 200.37
  A 1.30 1.28 -88.8 0 0 897.29 199.54
  Q 890.65 197.04 887.85 202.70
  A 1.01 1.00 -76.6 0 1 886.96 203.26
  L 879.85 203.27
  A 0.20 0.20 0.0 0 1 879.65 203.02
  C 882.07 192.21 893.99 190.03 902.90 193.32
  C 907.60 195.07 907.32 198.84 906.37 203.46
  Q 904.47 212.56 902.92 219.73
  Q 902.50 221.63 903.70 222.96
  A 0.93 0.92 -21.1 0 1 903.01 224.50
  L 895.13 224.51
  A 0.67 0.66 89.9 0 1 894.47 223.84
  L 894.46 221.90
  Z
  M 896.11 209.61
  Q 893.46 210.47 889.50 211.13
  Q 885.34 211.82 884.41 215.33
  C 883.86 217.40 885.04 219.23 887.18 219.13
  Q 895.61 218.75 896.40 209.85
  A 0.22 0.22 0.0 0 0 896.11 209.61
  Z"
/>
<path fill="#000000" d="
  M 978.50 196.81
  A 0.28 0.28 0.0 0 0 979.00 197.03
  Q 982.90 191.60 989.70 192.04
  A 0.19 0.19 0.0 0 1 989.87 192.27
  L 988.13 200.48
  A 0.29 0.28 -79.1 0 1 987.81 200.70
  Q 978.14 199.37 976.24 209.24
  Q 974.66 217.50 973.14 224.23
  A 0.37 0.37 0.0 0 1 972.78 224.51
  L 964.79 224.51
  A 0.24 0.24 0.0 0 1 964.55 224.22
  L 971.02 193.76
  A 1.30 1.29 6.0 0 1 972.29 192.74
  L 978.56 192.74
  A 0.65 0.65 0.0 0 1 979.20 193.52
  L 978.50 196.81
  Z"
/>
<path fill="#000000" d="
  M 107.53 224.51
  L 99.68 224.51
  A 0.38 0.38 0.0 0 1 99.31 224.05
  L 105.90 193.05
  A 0.38 0.38 0.0 0 1 106.27 192.75
  L 114.11 192.75
  A 0.38 0.38 0.0 0 1 114.48 193.21
  L 107.90 224.21
  A 0.38 0.38 0.0 0 1 107.53 224.51
  Z"
/>
<path fill="#000000" d="
  M 210.76 224.51
  L 202.87 224.51
  A 0.36 0.36 0.0 0 1 202.52 224.08
  L 209.11 193.05
  A 0.36 0.36 0.0 0 1 209.46 192.76
  L 217.36 192.76
  A 0.36 0.36 0.0 0 1 217.71 193.19
  L 211.11 224.22
  A 0.36 0.36 0.0 0 1 210.76 224.51
  Z"
/>
<path fill="#000000" d="
  M 452.20 192.73
  L 459.92 192.73
  A 0.44 0.44 0.0 0 1 460.35 193.26
  L 453.79 224.14
  A 0.44 0.44 0.0 0 1 453.36 224.49
  L 445.63 224.49
  A 0.44 0.44 0.0 0 1 445.20 223.96
  L 451.77 193.08
  A 0.44 0.44 0.0 0 1 452.20 192.73
  Z"
/>
<path fill="#000000" d="
  M 519.00 224.51
  L 511.15 224.51
  A 0.38 0.38 0.0 0 1 510.78 224.05
  L 517.37 193.05
  A 0.38 0.38 0.0 0 1 517.74 192.75
  L 525.58 192.75
  A 0.38 0.38 0.0 0 1 525.95 193.21
  L 519.37 224.21
  A 0.38 0.38 0.0 0 1 519.00 224.51
  Z"
/>
<path fill="#000000" d="
  M 878.32 193.31
  L 860.42 224.31
  A 0.38 0.38 0.0 0 1 860.09 224.50
  L 851.88 224.50
  A 0.38 0.38 0.0 0 1 851.50 224.18
  L 846.95 193.19
  A 0.38 0.38 0.0 0 1 847.33 192.75
  L 856.04 192.75
  A 0.38 0.38 0.0 0 1 856.41 193.10
  L 857.90 214.40
  A 0.38 0.38 0.0 0 0 858.62 214.54
  L 869.14 192.95
  A 0.38 0.38 0.0 0 1 869.48 192.74
  L 877.99 192.74
  A 0.38 0.38 0.0 0 1 878.32 193.31
  Z"
/>
</svg>
